<?xml version="1.0" standalone="no"?>
<!DOCTYPE svg PUBLIC "-//W3C//DTD SVG 20010904//EN"
 "http://www.w3.org/TR/2001/REC-SVG-20010904/DTD/svg10.dtd">
<svg version="1.0" xmlns="http://www.w3.org/2000/svg"
 width="183.000000pt" height="183.000000pt" viewBox="0 0 183.000000 183.000000"
 preserveAspectRatio="xMidYMid meet">
<metadata>
Created by potrace 1.11, written by Peter Selinger 2001-2013
</metadata>
<g transform="translate(0.000000,183.000000) scale(0.100000,-0.100000)"
fill="#000000" stroke="none">
<path d="M1337 1476 c-42 -12 -61 -23 -105 -63 -7 -7 -25 -38 -40 -70 -23 -52
-26 -70 -26 -163 1 -91 4 -113 27 -163 15 -34 46 -77 76 -105 l50 -48 -43 -76
c-61 -108 -110 -172 -158 -207 -90 -66 -165 -23 -183 104 -4 28 -9 59 -12 70
-6 32 -5 315 1 380 8 70 16 138 22 181 18 121 6 146 -69 148 -74 1 -103 -37
-121 -158 -22 -146 -91 -386 -151 -527 -38 -88 -103 -190 -137 -213 -51 -36
-93 -7 -122 82 -38 120 -37 361 3 656 17 125 2 158 -72 160 -71 1 -99 -36
-112 -149 -4 -33 -9 -69 -11 -79 -2 -11 -7 -72 -11 -135 -24 -381 30 -621 160
-706 65 -42 185 -14 262 63 63 63 140 191 176 294 15 43 25 42 27 -4 2 -52 29
-181 47 -224 60 -144 165 -185 304 -118 100 49 258 231 326 376 9 21 21 36 25
33 5 -3 51 -8 102 -11 89 -6 96 -5 122 17 29 25 39 80 19 100 -6 6 -50 13 -98
15 -49 2 -90 6 -92 8 -3 2 5 37 16 78 39 139 48 261 25 337 -15 52 -78 120
-112 122 -9 0 -28 2 -42 4 -14 2 -46 -2 -73 -9z m68 -160 c11 -17 15 -44 14
-88 -2 -65 -33 -206 -48 -221 -13 -13 -69 81 -77 129 -12 80 13 183 48 197 28
11 48 6 63 -17z"/>
</g>
</svg>
